HIERARCHY
ROOT Hips
{
 OFFSET 0.000000 0.000000 0.000000
 CHANNELS 6 Xposition Yposition Zposition Yrotation Xrotation Zrotation
 JOINT Chest
 {
  OFFSET 0.000000 9.585900 0.002600
  CHANNELS 3 Yrotation Xrotation Zrotation
  JOINT Chest2
  {
   OFFSET 0.000000 9.601200 -0.005300
   CHANNELS 3 Yrotation Xrotation Zrotation
   JOINT Chest3
   {
    OFFSET 0.000000 9.561800 0.000000
    CHANNELS 3 Yrotation Xrotation Zrotation
    JOINT Chest4
    {
     OFFSET 0.000000 9.552100 0.000000
     CHANNELS 3 Yrotation Xrotation Zrotation
     JOINT Neck
     {
      OFFSET 0.000000 14.453000 0.000000
      CHANNELS 3 Yrotation Xrotation Zrotation
      JOINT Head
      {
       OFFSET 0.000000 8.936500 -0.011300
       CHANNELS 3 Yrotation Xrotation Zrotation
       End Site
       {
        OFFSET 0.000000 17.073600 -0.006000
       }
      }
     }
     JOINT RightCollar
     {
      OFFSET -2.921100 9.558500 0.000000
      CHANNELS 3 Yrotation Xrotation Zrotation
      JOINT RightShoulder
      {
       OFFSET -13.519700 0.000000 0.000000
       CHANNELS 3 Yrotation Xrotation Zrotation
       JOINT RightElbow
       {
        OFFSET 0.000000 -29.696600 0.000000
        CHANNELS 3 Yrotation Xrotation Zrotation
        JOINT RightWrist
        {
         OFFSET 0.000000 -24.004700 0.000000
         CHANNELS 3 Yrotation Xrotation Zrotation
         End Site
         {
          OFFSET 0.000000 -17.728500 0.000000
         }
        }
       }
      }
     }
     JOINT LeftCollar
     {
      OFFSET 2.921100 9.558500 0.000000
      CHANNELS 3 Yrotation Xrotation Zrotation
      JOINT LeftShoulder
      {
       OFFSET 13.519700 0.000000 0.000000
       CHANNELS 3 Yrotation Xrotation Zrotation
       JOINT LeftElbow
       {
        OFFSET 0.000000 -29.696600 0.000000
        CHANNELS 3 Yrotation Xrotation Zrotation
        JOINT LeftWrist
        {
         OFFSET 0.000000 -24.004700 0.000000
         CHANNELS 3 Yrotation Xrotation Zrotation
         End Site
         {
          OFFSET 0.000000 -17.728500 0.000000
         }
        }
       }
      }
     }
    }
   }
  }
 }
 JOINT RightHip
 {
  OFFSET -7.771700 -0.012900 -0.001300
  CHANNELS 3 Yrotation Xrotation Zrotation
  JOINT RightKnee
  {
   OFFSET 0.000000 -40.869800 0.001200
   CHANNELS 3 Yrotation Xrotation Zrotation
   JOINT RightAnkle
   {
    OFFSET 0.000000 -39.717900 0.002100
    CHANNELS 3 Yrotation Xrotation Zrotation
    JOINT RightToe
    {
     OFFSET 0.000000 -4.965400 11.033500
     CHANNELS 3 Yrotation Xrotation Zrotation
     End Site
     {
      OFFSET 0.000000 -1.423100 5.872300
     }
    }
   }
  }
 }
 JOINT LeftHip
 {
  OFFSET 7.771700 -0.012900 -0.001300
  CHANNELS 3 Yrotation Xrotation Zrotation
  JOINT LeftKnee
  {
   OFFSET 0.000000 -40.869800 0.001200
   CHANNELS 3 Yrotation Xrotation Zrotation
   JOINT LeftAnkle
   {
    OFFSET 0.000000 -39.717900 0.002100
    CHANNELS 3 Yrotation Xrotation Zrotation
    JOINT LeftToe
    {
     OFFSET 0.000000 -4.965400 11.033500
     CHANNELS 3 Yrotation Xrotation Zrotation
     End Site
     {
      OFFSET 0.000000 -1.423100 5.872300
     }
    }
   }
  }
 }
}
MOTION
Frames: 11
Frame Time: 0.008333
-218.263109 57.922417 25.694509 173.686110 -51.080045 -3.734367 4.872626 23.290687 3.678162 2.510998 13.347953 1.836730 3.230283 16.670634 2.407008 2.510996 13.347940 1.836752 0.869960 15.362985 2.802326 0.595873 -7.250261 4.912378 1.875504 2.417237 0.752286 2.989681 -14.418280 -12.546057 -60.302002 -56.899067 109.709216 -1.863443 7.529692 -39.103051 -10.828323 0.060208 -1.024660 -2.189704 -16.706303 14.494380 44.545310 -46.444442 -100.896830 5.928840 4.809381 9.399666 3.846635 -21.064989 -1.123012 -35.975297 73.504789 -38.084452 5.419200 -12.925361 10.300750 0.035164 -0.062531 0.015091 -7.076831 -19.720270 9.674177 58.136106 78.017919 57.377315 5.988746 -14.975647 -18.957216 -0.004459 0.065757 -0.025618
-218.262206 57.923785 25.693840 173.679652 -51.078156 -3.732250 4.864616 23.292207 3.670960 2.510060 13.347088 1.835373 3.211479 16.671032 2.401060 2.506221 13.346330 1.833027 0.886622 15.353211 2.787466 0.595139 -7.269455 4.892159 1.902960 2.400845 0.738530 3.013792 -14.403403 -12.548952 -60.308238 -56.988442 109.710010 -1.877257 7.427482 -39.307864 -10.813337 0.049493 -1.029387 -2.172359 -16.698597 14.496000 44.493874 -46.401719 -100.876909 5.978766 4.848943 9.356490 3.857018 -21.067570 -1.121759 -35.996351 73.503866 -38.093904 5.418090 -12.920002 10.295366 0.038265 -0.067420 0.016910 -7.065630 -19.720282 9.675746 58.115299 78.017157 57.364258 5.988842 -14.977493 -18.952180 -0.006826 0.066513 -0.024398
-218.261618 57.925125 25.693382 173.674195 -51.075793 -3.726847 4.850544 23.297533 3.659051 2.502234 13.344788 1.831041 3.219020 16.666778 2.399637 2.502259 13.344841 1.831026 0.884428 15.342673 2.773764 0.582481 -7.343378 4.833569 1.915659 2.385071 0.728761 3.058344 -14.388540 -12.561933 -60.335193 -57.061342 109.718575 -1.875755 7.319964 -39.536134 -10.815752 0.042234 -1.029967 -2.152335 -16.691827 14.494530 44.365306 -46.308040 -100.837264 5.967515 4.845295 9.334841 3.864714 -21.069454 -1.124442 -36.003996 73.501335 -38.093214 5.411153 -12.914053 10.293796 0.035582 -0.069460 0.015439 -7.055140 -19.721096 9.674689 58.090563 78.018312 57.343354 5.986560 -14.979185 -18.944690 -0.009493 0.066950 -0.024603
-218.260952 57.925485 25.694101 173.674631 -51.064829 -3.725882 4.842730 23.289238 3.653158 2.497214 13.343456 1.829348 3.214393 16.664371 2.397640 2.506543 13.345420 1.828895 0.873831 15.327627 2.760409 0.583981 -7.380563 4.801478 1.921691 2.353957 0.723064 3.106024 -14.358903 -12.577607 -60.362158 -57.140661 109.728079 -1.868896 7.190575 -39.784650 -10.827469 0.034177 -1.027514 -2.130832 -16.683133 14.490257 44.248051 -46.222849 -100.805163 5.958933 4.852610 9.305145 3.865980 -21.078723 -1.127496 -36.001398 73.498667 -38.087240 5.418492 -12.911428 10.293559 0.034876 -0.070099 0.013426 -7.053787 -19.731483 9.675054 58.052689 78.021266 57.307947 5.984434 -14.977976 -18.938065 -0.004060 0.066861 -0.027216
-218.259649 57.926637 25.694700 173.670561 -51.059244 -3.724817 4.843578 23.283979 3.653773 2.490920 13.343384 1.829050 3.210789 16.661975 2.396693 2.506848 13.345545 1.825332 0.862096 15.307376 2.745386 0.593844 -7.386530 4.788917 1.928228 2.343205 0.719219 3.120687 -14.346336 -12.580764 -60.364131 -57.237058 109.749493 -1.852139 7.038389 -40.053769 -10.836257 0.026638 -1.024558 -2.117822 -16.674649 14.489577 44.168198 -46.161248 -100.785167 5.972831 4.877280 9.261816 3.868624 -21.082226 -1.123716 -36.001617 73.493080 -38.085013 5.419687 -12.908662 10.295414 0.033825 -0.069047 0.011160 -7.041655 -19.734957 9.675340 58.023541 78.017659 57.286571 5.989493 -14.978912 -18.931425 -0.010972 0.071177 -0.028343
-218.258632 57.927739 25.695733 173.667989 -51.052486 -3.724189 4.839352 23.279944 3.651310 2.490310 13.341832 1.831849 3.207683 16.659631 2.396308 2.500998 13.342981 1.822570 0.858011 15.287043 2.726692 0.598978 -7.392437 4.777083 1.938914 2.335194 0.709793 3.181498 -14.338681 -12.601712 -60.406607 -57.325756 109.767490 -1.830047 6.869773 -40.344039 -10.835967 0.023074 -1.026791 -2.121195 -16.662485 14.497895 44.149433 -46.129675 -100.785246 6.012318 4.926804 9.195729 3.870300 -21.087383 -1.120837 -35.987417 73.493542 -38.068067 5.416019 -12.909795 10.291653 0.036433 -0.066367 0.012975 -7.024802 -19.742392 9.673013 57.999330 78.015170 57.276772 5.990650 -14.978819 -18.929394 -0.000045 0.070383 -0.019153
-218.259760 57.929245 25.696452 173.670242 -51.048651 -3.715709 4.829538 23.279767 3.641514 2.486075 13.340836 1.830359 3.209601 16.658019 2.394656 2.497283 13.339835 1.825880 0.838936 15.228045 2.689944 0.597443 -7.472676 4.710813 1.945370 2.323321 0.697687 3.245612 -14.331706 -12.625920 -60.460994 -57.415051 109.796099 -1.804650 6.691993 -40.649009 -10.833151 0.023275 -1.034139 -2.124059 -16.658026 14.498896 44.114354 -46.106343 -100.777703 6.048720 4.971246 9.126607 3.872897 -21.089793 -1.130684 -35.976983 73.500184 -38.059861 5.406628 -12.914227 10.293900 0.038429 -0.065371 0.013007 -7.011031 -19.748842 9.657084 57.993867 78.006223 57.278304 5.987000 -14.974323 -18.922177 -0.003990 0.069615 -0.017978
-218.260145 57.930798 25.697667 173.675129 -51.044331 -3.715668 4.814564 23.282905 3.635471 2.486309 13.335320 1.827906 3.212675 16.657238 2.393858 2.478535 13.333672 1.831717 0.841936 15.198693 2.659261 0.601464 -7.502785 4.682873 1.967144 2.312139 0.680816 3.314978 -14.322557 -12.653422 -60.523320 -57.504746 109.829526 -1.773555 6.505055 -40.961865 -10.830686 0.015508 -1.042484 -2.111491 -16.644660 14.493728 44.052010 -46.075237 -100.769715 6.071845 4.988034 9.077085 3.870472 -21.089090 -1.132682 -35.964289 73.496923 -38.042324 5.397211 -12.915835 10.287574 0.037819 -0.061966 0.015210 -7.002112 -19.754641 9.649859 57.982383 77.994358 57.270425 5.979841 -14.967877 -18.909004 -0.008349 0.069587 -0.020630
-218.260550 57.932246 25.699261 173.680276 -51.038856 -3.717406 4.805623 23.279159 3.631037 2.479799 13.334837 1.827377 3.193935 16.653280 2.394397 2.482539 13.333785 1.827596 0.843678 15.164493 2.630356 0.607106 -7.511230 4.668213 1.989016 2.298479 0.665497 3.452269 -14.325186 -12.703613 -60.614941 -57.574371 109.824001 -1.736995 6.307932 -41.276207 -10.823977 0.006873 -1.047203 -2.110731 -16.627580 14.490708 43.998197 -46.055158 -100.766559 6.099509 4.993321 9.033338 3.871014 -21.091565 -1.135744 -35.951652 73.494753 -38.025911 5.394956 -12.913421 10.287158 0.034625 -0.062492 0.014429 -6.998914 -19.760811 9.646714 57.971163 77.991917 57.261273 5.977644 -14.965955 -18.903627 -0.007695 0.069345 -0.018849
-218.260000 57.933032 25.701778 173.673815 -51.028074 -3.717386 4.809227 23.268113 3.634962 2.469474 13.336062 1.827085 3.197095 16.651577 2.392881 2.480763 13.333028 1.827612 0.835911 15.123818 2.607355 0.611383 -7.663033 4.568468 2.000083 2.285708 0.656654 3.547897 -14.328560 -12.738185 -60.678191 -57.652984 109.832901 -1.698789 6.107562 -41.584310 -10.832503 -0.001749 -1.046881 -2.103849 -16.610234 14.489276 43.957695 -46.046165 -100.777483 6.109528 4.975967 9.034838 3.873524 -21.102662 -1.131360 -35.943088 73.487830 -38.012918 5.399604 -12.904567 10.284315 0.033627 -0.064461 0.013503 -6.993388 -19.771538 9.653024 57.961834 77.987635 57.251721 5.983738 -14.961320 -18.900341 -0.019981 0.071070 -0.018175
-218.260680 57.934335 25.703697 173.669522 -51.021149 -3.711761 4.799187 23.265807 3.626223 2.469816 13.335095 1.828487 3.198144 16.648361 2.391938 2.479139 13.332004 1.828043 0.829357 15.081463 2.581072 0.617554 -7.762858 4.496576 2.009384 2.283382 0.648722 3.628045 -14.336812 -12.772049 -60.739165 -57.732359 109.859520 -1.667419 5.912924 -41.883299 -10.862274 -0.022577 -1.033349 -2.080646 -16.582138 14.471218 43.920052 -46.041777 -100.779383 6.149201 4.982993 8.986524 3.880900 -21.112268 -1.134661 -35.951764 73.487148 -38.019228 5.408088 -12.896927 10.287842 0.033963 -0.070623 0.010915 -6.987457 -19.778239 9.654223 57.951183 77.981068 57.239292 5.968449 -14.957048 -18.897903 -0.014756 0.068479 -0.013195
